<svg width="39" height="38" viewBox="0 0 39 38" fill="none" xmlns="http://www.w3.org/2000/svg">
<path d="M38.7436 34.6558C36.268 30.2674 32.4023 26.8481 27.7689 24.9482C30.0731 23.2029 31.7751 20.7695 32.6338 17.9928C33.4926 15.2161 33.4646 12.2369 32.5538 9.47718C31.643 6.71746 29.8956 4.31713 27.5591 2.61621C25.2226 0.915287 22.4154 0 19.5352 0C16.655 0 13.8478 0.915287 11.5113 2.61621C9.17476 4.31713 7.42734 6.71746 6.51654 9.47718C5.60575 12.2369 5.57776 15.2161 6.43654 17.9928C7.29532 20.7695 8.99733 23.2029 11.3015 24.9482C6.66807 26.8481 2.80241 30.2674 0.326802 34.6558C0.173404 34.9049 0.0711651 35.1827 0.0261631 35.4725C-0.0188389 35.7623 -0.00568541 36.0583 0.0648418 36.3429C0.135369 36.6275 0.26183 36.8949 0.436707 37.1291C0.611584 37.3634 0.831306 37.5597 1.08281 37.7065C1.33432 37.8532 1.61247 37.9474 1.90074 37.9834C2.18901 38.0195 2.4815 37.9966 2.76084 37.9161C3.04017 37.8357 3.30064 37.6994 3.52677 37.5152C3.75289 37.3311 3.94005 37.1029 4.07711 36.8443C7.34893 31.1324 13.127 27.7257 19.5352 27.7257C25.9434 27.7257 31.7214 31.1342 34.9933 36.8443C35.2903 37.3267 35.7615 37.6735 36.3071 37.8115C36.8528 37.9494 37.4301 37.8676 37.9172 37.5834C38.4042 37.2992 38.7627 36.8349 38.917 36.2885C39.0712 35.7422 39.009 35.1567 38.7436 34.6558ZM10.1459 13.8656C10.1459 11.99 10.6965 10.1565 11.7283 8.597C12.76 7.03748 14.2264 5.82199 15.9421 5.10423C17.6577 4.38646 19.5456 4.19866 21.367 4.56458C23.1883 4.93049 24.8613 5.83368 26.1744 7.15994C27.4876 8.48619 28.3818 10.1759 28.7441 12.0155C29.1064 13.8551 28.9204 15.7619 28.2098 17.4947C27.4991 19.2275 26.2957 20.7086 24.7516 21.7506C23.2076 22.7927 21.3922 23.3489 19.5352 23.3489C17.0459 23.346 14.6593 22.3459 12.8991 20.5681C11.1389 18.7903 10.1487 16.3798 10.1459 13.8656Z" fill="#658F61"/>
</svg>
