<svg width="45" height="42" viewBox="0 0 45 42" fill="none" xmlns="http://www.w3.org/2000/svg">
<path d="M43.551 16.3252L25.5623 1.08582L25.5262 1.05554C24.6995 0.376566 23.6195 0 22.4989 0C21.3782 0 20.2982 0.376566 19.4715 1.05554L19.4333 1.08582L1.449 16.3252C0.992926 16.7038 0.628837 17.1629 0.379512 17.6737C0.130186 18.1844 0.000987372 18.7358 0 19.2935V37.9615C0 39.0326 0.474106 40.0598 1.31802 40.8171C2.16193 41.5745 3.30653 42 4.5 42H15.3C16.4935 42 17.6381 41.5745 18.482 40.8171C19.3259 40.0598 19.8 39.0326 19.8 37.9615V29.0768H25.2V37.9615C25.2 39.0326 25.6741 40.0598 26.518 40.8171C27.3619 41.5745 28.5065 42 29.7 42H40.5C41.6935 42 42.8381 41.5745 43.682 40.8171C44.5259 40.0598 45 39.0326 45 37.9615V19.2935C44.999 18.7358 44.8698 18.1844 44.6205 17.6737C44.3712 17.1629 44.0071 16.7038 43.551 16.3252ZM39.6 37.1538H30.6V28.2691C30.6 27.7387 30.4836 27.2136 30.2575 26.7236C30.0313 26.2336 29.6998 25.7884 29.282 25.4134C28.8641 25.0384 28.368 24.7409 27.8221 24.538C27.2761 24.335 26.6909 24.2305 26.1 24.2305H18.9C17.7065 24.2305 16.5619 24.656 15.718 25.4134C14.8741 26.1708 14.4 27.198 14.4 28.2691V37.1538H5.4V19.6428L22.5 5.15463L39.6 19.6428V37.1538Z" fill="#658F61"/>
</svg>
