<svg width="29" height="23" viewBox="0 0 29 23" fill="none" xmlns="http://www.w3.org/2000/svg">
<path d="M0.513862 10.336L10.9521 0.481869C11.2789 0.173334 11.7222 3.96871e-07 12.1844 4.37278e-07C12.6465 4.77684e-07 13.0898 0.173335 13.4166 0.481869C13.7435 0.790404 13.9271 1.20887 13.9271 1.6452C13.9271 2.08154 13.7435 2.5 13.4166 2.80854L5.94898 9.85559L27.2603 9.8556C27.7217 9.8556 28.1642 10.0286 28.4905 10.3366C28.8167 10.6446 29 11.0624 29 11.4979C29 11.9335 28.8167 12.3513 28.4905 12.6593C28.1642 12.9673 27.7217 13.1403 27.2603 13.1403L5.94898 13.1403L13.4137 20.1915C13.7406 20.5 13.9242 20.9185 13.9242 21.3548C13.9242 21.7911 13.7406 22.2096 13.4137 22.5181C13.0869 22.8267 12.6436 23 12.1814 23C11.7193 23 11.276 22.8267 10.9492 22.5181L0.510962 12.664C0.348748 12.5112 0.220103 12.3297 0.132417 12.1298C0.0447302 11.93 -0.000269857 11.7158 1.00541e-06 11.4994C0.00026996 11.2831 0.0458041 11.069 0.133988 10.8693C0.222171 10.6697 0.351266 10.4884 0.513862 10.336Z" fill="white"/>
</svg>
