<svg width="51" height="42" viewBox="0 0 51 42" fill="none" xmlns="http://www.w3.org/2000/svg">
<path d="M50.0963 23.1211L31.7395 41.112C31.1647 41.6753 30.3852 41.9918 29.5723 41.9918C28.7595 41.9918 27.98 41.6753 27.4052 41.112C26.8305 40.5487 26.5076 39.7847 26.5076 38.9881C26.5076 38.1915 26.8305 37.4275 27.4052 36.8642L40.538 23.9981H3.05947C2.24805 23.9981 1.46986 23.6822 0.896099 23.1199C0.322336 22.5576 0 21.7949 0 20.9996C0 20.2044 0.322336 19.4417 0.896099 18.8794C1.46986 18.3171 2.24805 18.0012 3.05947 18.0012H40.538L27.4103 5.12763C26.8356 4.56432 26.5127 3.80032 26.5127 3.00369C26.5127 2.20706 26.8356 1.44306 27.4103 0.879761C27.9851 0.316459 28.7646 8.39385e-09 29.5774 0C30.3903 -8.39385e-09 31.1698 0.316459 31.7446 0.879761L50.1014 18.8707C50.3867 19.1497 50.6129 19.4811 50.7671 19.846C50.9213 20.2109 51.0005 20.602 51 20.9969C50.9995 21.3919 50.9194 21.7828 50.7644 22.1474C50.6093 22.5119 50.3822 22.8428 50.0963 23.1211Z" fill="#658F61"/>
</svg>
