<svg width="23" height="21" viewBox="0 0 23 21" fill="none" xmlns="http://www.w3.org/2000/svg">
<path d="M17.9187 9.07987C17.4801 9.07987 17.1164 8.75491 17.1164 8.36304V6.45149C17.1164 3.44079 16.1643 1.43366 11.5001 1.43366C6.83592 1.43366 5.88383 3.44079 5.88383 6.45149V8.36304C5.88383 8.75491 5.52011 9.07987 5.0815 9.07987C4.6429 9.07987 4.27917 8.75491 4.27917 8.36304V6.45149C4.27917 3.67974 5.02801 0 11.5001 0C17.9722 0 18.721 3.67974 18.721 6.45149V8.36304C18.721 8.75491 18.3573 9.07987 17.9187 9.07987Z" fill="#CBC3C3"/>
<path d="M11.5001 17.204C9.58518 17.204 8.02332 15.8086 8.02332 14.0977C8.02332 12.3869 9.58518 10.9915 11.5001 10.9915C13.4149 10.9915 14.9768 12.3869 14.9768 14.0977C14.9768 15.8086 13.4149 17.204 11.5001 17.204ZM11.5001 12.4251C10.4731 12.4251 9.62797 13.1802 9.62797 14.0977C9.62797 15.0153 10.4731 15.7703 11.5001 15.7703C12.527 15.7703 13.3722 15.0153 13.3722 14.0977C13.3722 13.1802 12.527 12.4251 11.5001 12.4251Z" fill="#CBC3C3"/>
<path d="M16.8488 20.5492H6.15116C1.43349 20.5492 0 19.2685 0 15.0535V13.142C0 8.92698 1.43349 7.64624 6.15116 7.64624H16.8488C21.5665 7.64624 23 8.92698 23 13.142V15.0535C23 19.2685 21.5665 20.5492 16.8488 20.5492ZM6.15116 9.0799C2.3214 9.0799 1.60465 9.72983 1.60465 13.142V15.0535C1.60465 18.4656 2.3214 19.1156 6.15116 19.1156H16.8488C20.6786 19.1156 21.3953 18.4656 21.3953 15.0535V13.142C21.3953 9.72983 20.6786 9.0799 16.8488 9.0799H6.15116Z" fill="#CBC3C3"/>
</svg>
