<svg width="25" height="21" viewBox="0 0 25 21" fill="none" xmlns="http://www.w3.org/2000/svg">
<path d="M12.4999 11.1507C8.25739 11.1507 4.80448 8.64909 4.80448 5.57537C4.80448 2.50164 8.25739 0 12.4999 0C16.7424 0 20.1953 2.50164 20.1953 5.57537C20.1953 8.64909 16.7424 11.1507 12.4999 11.1507ZM12.4999 1.45444C9.36821 1.45444 6.81199 3.30643 6.81199 5.57537C6.81199 7.8443 9.36821 9.69629 12.4999 9.69629C15.6316 9.69629 18.1878 7.8443 18.1878 5.57537C18.1878 3.30643 15.6316 1.45444 12.4999 1.45444Z" fill="#CBC3C3"/>
<path d="M23.9963 20.847C23.4476 20.847 22.9925 20.5173 22.9925 20.1198C22.9925 16.7745 18.2817 14.0596 12.5001 14.0596C6.71843 14.0596 2.0075 16.7745 2.0075 20.1198C2.0075 20.5173 1.55247 20.847 1.00375 20.847C0.455034 20.847 0 20.5173 0 20.1198C0 15.9794 5.60761 12.6051 12.5001 12.6051C19.3925 12.6051 25 15.9794 25 20.1198C25 20.5173 24.545 20.847 23.9963 20.847Z" fill="#CBC3C3"/>
</svg>
