<svg width="29" height="23" viewBox="0 0 29 23" fill="none" xmlns="http://www.w3.org/2000/svg">
<path d="M28.4861 12.664L18.0479 22.5181C17.7211 22.8267 17.2778 23 16.8157 23C16.3535 23 15.9102 22.8267 15.5834 22.5181C15.2565 22.2096 15.0729 21.7911 15.0729 21.3548C15.0729 20.9185 15.2565 20.5 15.5834 20.1915L23.051 13.1444H1.7397C1.2783 13.1444 0.835803 12.9714 0.509546 12.6634C0.183289 12.3554 0 11.9376 0 11.5021C0 11.0665 0.183289 10.6487 0.509546 10.3407C0.835803 10.0327 1.2783 9.8597 1.7397 9.8597H23.051L15.5863 2.80853C15.2594 2.5 15.0758 2.08154 15.0758 1.6452C15.0758 1.20887 15.2594 0.790403 15.5863 0.481868C15.9131 0.173333 16.3563 4.59753e-09 16.8185 0C17.2807 -4.59753e-09 17.724 0.173333 18.0508 0.481868L28.489 10.336C28.6512 10.4888 28.7799 10.6703 28.8676 10.8702C28.9553 11.07 29.0003 11.2842 29 11.5006C28.9997 11.7169 28.9542 11.931 28.866 12.1307C28.7778 12.3303 28.6487 12.5116 28.4861 12.664Z" fill="white"/>
</svg>
