<svg width="49" height="49" viewBox="0 0 49 49" fill="none" xmlns="http://www.w3.org/2000/svg">
<path d="M42.875 29.6297L33.8617 25.5891L33.8272 25.5738C33.2414 25.3212 32.6015 25.2195 31.9662 25.2781C31.3309 25.3366 30.7204 25.5534 30.1905 25.9088C30.1162 25.9585 30.0447 26.0122 29.9761 26.0695L25.7059 29.7063C23.2176 28.3568 20.647 25.8073 19.2957 23.3497L22.9439 19.0124C23.0025 18.9424 23.0569 18.8689 23.1066 18.7923C23.4526 18.2643 23.6627 17.6589 23.7181 17.0301C23.7736 16.4013 23.6726 15.7685 23.4243 15.1881C23.4184 15.177 23.4133 15.1655 23.409 15.1536L19.3703 6.12501C19.0388 5.36996 18.473 4.7417 17.7567 4.3332C17.0404 3.9247 16.2115 3.75768 15.3929 3.85685C12.6144 4.22185 10.0638 5.58577 8.21735 7.69388C6.37094 9.802 5.35505 12.5101 5.35939 15.3125C5.35939 30.9332 18.0669 43.6406 33.6875 43.6406C36.4899 43.645 39.198 42.6291 41.3061 40.7827C43.4143 38.9363 44.7782 36.3856 45.1432 33.6071C45.2423 32.7885 45.0753 31.9597 44.6668 31.2433C44.2583 30.527 43.6301 29.9612 42.875 29.6297ZM33.6875 39.0469C27.3951 39.0393 21.3626 36.5363 16.9132 32.0869C12.4638 27.6374 9.96074 21.6049 9.95314 15.3125C9.94875 13.7267 10.4871 12.1871 11.4788 10.9496C12.4705 9.71213 13.8557 8.85121 15.4044 8.50994L19.0067 16.549L15.3393 20.9169C15.28 20.9875 15.2251 21.0617 15.1747 21.1389C14.8132 21.6912 14.6007 22.3276 14.5578 22.9863C14.5149 23.645 14.643 24.3036 14.9297 24.8981C16.7327 28.5885 20.4479 32.2788 24.1765 34.0856C24.7751 34.3694 25.437 34.493 26.0976 34.4443C26.7582 34.3957 27.3948 34.1765 27.9453 33.8081C28.0193 33.7582 28.0903 33.7038 28.1578 33.6454L32.451 29.9953L40.4901 33.5956C40.1488 35.1443 39.2879 36.5296 38.0504 37.5212C36.8129 38.5129 35.2733 39.0513 33.6875 39.0469Z" fill="#658F61"/>
</svg>
